<svg width="48" height="48" xmlns="http://www.w3.org/2000/svg">
 <g>
   <g id="svg_1" fill="#c61732">
    <path id="svg_2" d="m38.977,44.8919c-8.4412,1 -16.2,1.5 -23.3,1.5069c-3.5352,0 -6.1,-0.9 -7.8,-2.7727c-1.65941,-1.9 -2.4,-4.7 -2.4,-8.6802l-0.02495,-19.2892c0,-4.2 0.8,-7.19999 2.5,-9.19254c1.71346,-1.9 4.39995,-2.8 8.30005,-2.86319l19.4724,0l0,8.43893l-17.3152,0c-2.1644,0 -3.2,1.2 -3.2,3.6168l-0.0449,19.2892c0,0.9 0.3,1.7 0.8,2.2002c0.4869,0.5 1.1,0.8 2,0.8137c4.1484,0 7.9,-0.1 11.4,-0.3014l-0.0564,-8.7404l-7.0344,0l0,-7.2334l16.7743,0l0,23.2073l0,0l-0.0709,0z"/>
   </g>
 </g>
</svg>