<svg xmlns="http://www.w3.org/2000/svg" version="1.1">
    <g fill="#c61732">
      <path d="M107.05507 118.96249c-8.96409 1 -17.2 1.4 -24.7 1.43655c-3.75419 0 -6.5 -0.9 -8.3 -2.64326c-1.76217 -1.8 -2.6 -4.5 -2.6 -8.27454L71.42857 91.09338c0 -4 0.9 -6.9 2.7 -8.76297c1.81963 -1.8 4.7 -2.7 8.8 -2.72945L103.60734 79.60096L103.60734 87.64565L85.21947 87.64565c-2.29848 0 -3.4 1.1 -3.4 3.44773L81.77175 109.48125c0 0.9 0.3 1.6 0.8 2.09737c0.51716 0.5 1.2 0.8 2.1 0.77574c4.40543 0 8.4 -0.1 12.1 -0.28731L96.71189 103.73504L89.24182 103.73504L89.24182 96.83958L107.05507 96.83958L107.05507 118.96249z"/>
      <path d="M126.30487 112.06704c2.03033 0 4.3 -0.4 6.9 -1.14924L133.20032 89.36951L143.25619 89.36951L143.25619 119.82442L134.34956 119.82442L133.77494 116.95132c-1.80048 1.2 -3.6 2.1 -5.5 2.61453c-1.89625 0.6 -3.5 0.8 -4.8 0.8332L120.84597 120.39904c-2.60495 0 -4.7 -0.8 -6.3 -2.35595c-1.57063 -1.6 -2.4 -3.7 -2.4 -6.26337L112.22666 89.36951L122.28252 89.36951L122.28252 110.05587c0 0.6 0.2 1.1 0.6 1.43655c0.38308 0.4 0.9 0.6 1.4 0.57462L126.30487 112.06704z"/>
      <path d="M169.40144 88.79489c3.10295 0 5.5 1.1 7.2 3.44773c1.76217 -1.2 3.7 -2.1 5.7 -2.61453c2.04948 -0.6 3.9 -0.8 5.5 -0.8332L188.36393 88.79489c2.60495 0 4.7 0.8 6.3 2.35595c1.57063 1.6 2.4 3.7 2.4 6.26337L196.98324 119.82442L186.92737 119.82442L186.92737 99.13807c0 -0.6 -0.2 -1.1 -0.6 -1.43655c-0.38308 -0.4 -0.9 -0.6 -1.4 -0.57462L184.62889 97.1269c-1.72386 0 -3.9 0.4 -6.6 1.14924L178.02075 119.82442L167.96488 119.82442L167.96488 99.13807c0 -0.6 -0.2 -1.1 -0.6 -1.43655c-0.38308 -0.4 -0.9 -0.6 -1.4 -0.57462L165.6664 97.1269c-1.72386 0 -3.9 0.4 -6.6 1.14924L159.05826 119.82442L149.00239 119.82442L149.00239 89.36951L157.90902 89.36951L158.48364 92.24262c1.80048 -1.2 3.6 -2.1 5.5 -2.61453c1.89625 -0.6 3.5 -0.8 4.8 -0.8332L169.40144 88.79489z"/>
      <path d="M223.4158 119.82442c-3.71588 0.4 -7.4 0.6 -10.9 0.57462c-2.60495 0 -4.7 -0.8 -6.3 -2.35595c-1.57063 -1.6 -2.4 -3.7 -2.4 -6.26337L203.87869 97.1269L200.43097 97.1269L200.43097 89.36951L203.87869 89.36951L205.02793 82.47406L213.93456 82.47406L213.93456 89.36951L221.11732 89.36951L221.11732 97.1269L213.93456 97.1269L213.93456 110.34318c0 0.6 0.2 1.1 0.6 1.43655c0.38308 0.4 0.9 0.6 1.4 0.57462L223.4158 112.35435L223.4158 119.82442z"/>
      <path d="M244.96409 97.70152c-2.41341 0 -4.9 0.6 -7.5 1.72386L237.49401 119.82442L227.43815 119.82442L227.43815 89.36951L236.34477 89.36951L236.91939 93.10455c3.29449 -2.9 6.7 -4.3 10.3 -4.30966L249.84836 88.79489L249.84836 97.70152L244.96409 97.70152z"/>
      <polygon points="249.8,111.2 260.2,111.2 260.2,119.8 249.8,119.8 249.8,111.2"/>
      <path x="0" y="0" d="M276.56824 95.97765c-1.53232 0 -2.3 0.8 -2.3 2.29848L274.26975 101.43655L284.03831 101.43655L284.03831 98.27614c0 -1.5 -0.8 -2.3 -2.3 -2.29848z M292.94493 119.2498c-7.39346 0.8 -14.1 1.1 -20.1 1.14924c-2.60495 0 -4.7 -0.8 -6.3 -2.35595c-1.57063 -1.6 -2.4 -3.7 -2.4 -6.26337L264.21389 97.98883c0 -2.9 0.8 -5.1 2.4 -6.7518c1.62809 -1.6 3.9 -2.4 6.8 -2.44214L284.90024 88.79489c2.8731 0 5.1 0.8 6.8 2.44214c1.62809 1.6 2.4 3.9 2.4 6.7518L294.09417 108.61931L274.26975 108.61931L274.26975 110.9178c0 0.6 0.2 1.1 0.6 1.43655c0.38308 0.4 0.9 0.6 1.4 0.57462c3.7925 0 9.3 -0.3 16.7 -0.86193L292.94493 119.2498z"/>
      <path x="0" y="0" d="M311.04549 95.97765c-1.53232 0 -2.3 0.8 -2.3 2.29848L308.74701 101.43655L318.51556 101.43655L318.51556 98.27614c0 -1.5 -0.8 -2.3 -2.3 -2.29848z M327.42219 119.2498c-7.39346 0.8 -14.1 1.1 -20.1 1.14924c-2.60495 0 -4.7 -0.8 -6.3 -2.35595c-1.57063 -1.6 -2.4 -3.7 -2.4 -6.26337L298.69114 97.98883c0 -2.9 0.8 -5.1 2.4 -6.7518c1.62809 -1.6 3.9 -2.4 6.8 -2.44214L319.37749 88.79489c2.8731 0 5.1 0.8 6.8 2.44214c1.62809 1.6 2.4 3.9 2.4 6.7518L328.57143 108.61931L308.74701 108.61931L308.74701 110.9178c0 0.6 0.2 1.1 0.6 1.43655c0.38308 0.4 0.9 0.6 1.4 0.57462c3.7925 0 9.3 -0.3 16.7 -0.86193L327.42219 119.2498z"/>
    </g>
</svg>