<svg xmlns="http://www.w3.org/2000/svg" width="200" height="40">
 <g>
  <g id="svg_1" fill="#c61732">
   <path id="svg_2" d="m38.977001 44.891922c-8.441202 1 -16.2 1.5 -23.3 1.506912c-3.535213 0 -6.1 -0.9 -7.8 -2.772766c-1.659407 -1.9 -2.4 -4.7 -2.4 -8.680206l-0.024953 -19.289151c0 -4.2 0.8 -7.2 2.5 -9.192548c1.713459 -1.9 4.4 -2.8 8.3 -2.863192l19.472469 0l0 8.438936l-17.315207 0c-2.164423 0 -3.2 1.2 -3.2 3.616802l-0.044918 19.289152c0 0.9 0.3 1.7 0.8 2.200214c0.486933 0.5 1.1 0.8 2 0.813721c4.148424 0 7.9 -0.1 11.4 -0.301384l-0.056402 -8.740425l-7.034353 0l0 -7.233404l16.774214 0l0 23.207338l0 0z"/>
   <path id="svg_3" d="m57.103924 37.658413c1.911873 0 4 -0.4 6.5 -1.205532l-0.004337 -22.604572l9.469307 0l0 31.947346l-8.387047 0l-0.541176 -3.013832c-1.695377 1.3 -3.4 2.2 -5.2 2.743183c-1.785591 0.6 -3.3 0.8 -4.5 0.873829l-2.47554 0c-2.453041 0 -4.4 -0.8 -5.9 -2.471489c-1.479076 -1.7 -2.3 -3.9 -2.3 -6.570313l0.075996 -23.508725l9.469223 0l0 21.700421c0 0.6 0.2 1.2 0.6 1.506916c0.360752 0.4 0.8 0.6 1.3 0.602768l1.90443 0l0 0l0 0z"/>
   <path id="svg_4" d="m97.686127 13.2456c2.921974 0 5.2 1.2 6.8 3.616701c1.660217 -1.3 3.5 -2.2 5.4 -2.742701c1.930389 -0.6 3.7 -0.8 5.2 -0.874001l0.530144 0c2.452988 0 4.4 0.8 5.9 2.4714c1.478439 1.7 2.3 3.9 2.3 6.5703l-0.076233 23.508701l-9.469704 0l0 -21.700302c0 -0.6 -0.2 -1.2 -0.6 -1.506899c-0.360771 -0.4 -0.8 -0.6 -1.3 -0.6029l-0.280624 0c-1.623375 0 -3.7 0.4 -6.2 1.205599l-0.007538 22.604502l-9.46946 0l0 -21.700302c0 -0.6 -0.2 -1.2 -0.6 -1.506899c-0.360641 -0.4 -0.8 -0.6 -1.3 -0.6029l-0.281616 0c-1.62252 0 -3.7 0.4 -6.2 1.205599l-0.00766 22.604502l-9.468971 0l0 -31.947701l8.387054 0l0.541565 3.014001c1.694992 -1.3 3.4 -2.2 5.2 -2.742701c1.785454 -0.6 3.3 -0.8 4.5 -0.874001l0.580971 0l0 0l0 0l0 0l0 0l0 0z"/>
   <path id="svg_5" d="m148.550339 45.795654c-3.499237 0.4 -7 0.6 -10.3 0.60318c-2.453064 0 -4.4 -0.8 -5.9 -2.471489c-1.47934 -1.7 -2.3 -3.9 -2.3 -6.570313l0.059341 -15.371065l-3.24688 0l0 -8.13766l3.24688 0l1.08197 -7.233402l8.387436 0l0 7.233402l6.763077 0l0 8.13766l-6.763077 0l0 13.864149c0 0.6 0.2 1.2 0.6 1.506916c0.360672 0.4 0.8 0.6 1.3 0.602871l7.044617 0l0 7.835751l0 0z"/>
   <path id="svg_6" d="m168.8414 22.588734c-2.272278 0 -4.6 0.6 -7.1 1.808405l0.028244 21.398516l-9.469421 0l0 -31.947346l8.387421 0l0.540543 3.918087c3.102783 -3 6.3 -4.5 9.7 -4.520849l2.475662 0l0 9.343187l-4.599106 0l0 0l0 0z"/>
   <polygon id="svg_7" points="173.4,36.7 183.2,36.7 183.2,45.8 173.4,45.8 173.4,36.7"/>
   <path id="svg_8" d="m198.601868 20.780434c-1.442642 0 -2.2 0.8 -2.2 2.411066l0.001877 3.315845l9.198196 0l0 -3.315845c0 -1.6 -0.8 -2.4 -2.2 -2.411066l-4.868423 0zm15.421692 24.413082c-6.962692 0.8 -13.3 1.2 -18.9 1.205318c-2.453049 0 -4.4 -0.8 -5.9 -2.471489c-1.47934 -1.7 -2.3 -3.9 -2.3 -6.570004l0.064987 -14.467226c0 -3 0.8 -5.3 2.3 -7.082767c1.533066 -1.7 3.7 -2.5 6.4 -2.561808l10.815979 0c2.705414 0 4.8 0.8 6.4 2.561808c1.533035 1.7 2.3 4.1 2.3 7.082767l-0.005676 11.151278l-18.667603 0l0 2.411694c0 0.6 0.2 1.2 0.6 1.506393c0.360672 0.4 0.8 0.6 1.3 0.603188c3.570801 0 8.8 -0.3 15.7 -0.904255l-0.023514 7.535103l0 0z"/>
   <path id="svg_9" d="m231.068695 20.780434c-1.443573 0 -2.2 0.8 -2.2 2.411066l0.000977 3.315845l9.199112 0l0 -3.315845c0 -1.6 -0.8 -2.4 -2.2 -2.411066l-4.868423 0zm15.420776 24.413082c-6.961777 0.8 -13.3 1.2 -18.9 1.205318c-2.453049 0 -4.4 -0.8 -5.9 -2.471489c-1.478409 -1.7 -2.3 -3.9 -2.3 -6.570004l0.064987 -14.467226c0 -3 0.8 -5.3 2.3 -7.082767c1.533035 -1.7 3.7 -2.5 6.4 -2.561808l10.816971 0c2.705444 0 4.8 0.8 6.4 2.561808c1.533951 1.7 2.3 4.1 2.3 7.082767l-0.006561 11.151278l-18.667664 0l0 2.411694c0 0.6 0.2 1.2 0.6 1.506393c0.360687 0.4 0.8 0.6 1.3 0.603188c3.571701 0 8.8 -0.3 15.7 -0.904255l-0.023483 7.535103z"/>
  </g>
 </g>
</svg>